<mxfile modified="2019-11-17T12:50:28.900Z" host="www.draw.io" agent="Mozilla/5.0 (Windows NT 10.0; Win64; x64) AppleWebKit/537.36 (KHTML, like Gecko) Chrome/78.0.3904.97 Safari/537.36" etag="RuEGMUhg4tbANBGoHzX4" version="12.2.6" type="github" pages="1">
  <diagram id="ZjFbMUzR2h4XMt5LGLqK" name="Page-1">
    <mxGraphModel dx="1463" dy="1862" grid="1" gridSize="10" guides="1" tooltips="1" connect="1" arrows="1" fold="1" page="1" pageScale="1" pageWidth="827" pageHeight="1169" math="0" shadow="0">
      <root>
        <mxCell id="MGRXwD8dUgbWrKYlEfeG-0"/>
        <mxCell id="MGRXwD8dUgbWrKYlEfeG-1" parent="MGRXwD8dUgbWrKYlEfeG-0"/>
        <mxCell id="dIiYX6rC-DH4-wpnL1Wr-92" value="" style="rounded=0;whiteSpace=wrap;html=1;fontSize=14;fontStyle=0" parent="MGRXwD8dUgbWrKYlEfeG-1" vertex="1">
          <mxGeometry x="195" y="-80" width="415" height="615" as="geometry"/>
        </mxCell>
        <mxCell id="dIiYX6rC-DH4-wpnL1Wr-93" value="Actor" style="shape=umlActor;verticalLabelPosition=bottom;labelBackgroundColor=#ffffff;verticalAlign=top;html=1;outlineConnect=0;fontSize=14;fontStyle=0" parent="MGRXwD8dUgbWrKYlEfeG-1" vertex="1">
          <mxGeometry x="20" y="190" width="30" height="60" as="geometry"/>
        </mxCell>
        <mxCell id="dIiYX6rC-DH4-wpnL1Wr-94" value="Actor" style="shape=umlActor;verticalLabelPosition=bottom;labelBackgroundColor=#ffffff;verticalAlign=top;html=1;outlineConnect=0;fontSize=14;fontStyle=0" parent="MGRXwD8dUgbWrKYlEfeG-1" vertex="1">
          <mxGeometry x="750" y="180" width="30" height="60" as="geometry"/>
        </mxCell>
        <mxCell id="dIiYX6rC-DH4-wpnL1Wr-95" value="Deploy contract" style="ellipse;whiteSpace=wrap;html=1;fontSize=14;fontStyle=0" parent="MGRXwD8dUgbWrKYlEfeG-1" vertex="1">
          <mxGeometry x="230" y="-50" width="120" height="80" as="geometry"/>
        </mxCell>
        <mxCell id="dIiYX6rC-DH4-wpnL1Wr-97" value="Verify User" style="ellipse;whiteSpace=wrap;html=1;fontSize=14;" parent="MGRXwD8dUgbWrKYlEfeG-1" vertex="1">
          <mxGeometry x="240" y="160" width="120" height="80" as="geometry"/>
        </mxCell>
        <mxCell id="dIiYX6rC-DH4-wpnL1Wr-99" value="Create Candidate" style="ellipse;whiteSpace=wrap;html=1;fontSize=14;" parent="MGRXwD8dUgbWrKYlEfeG-1" vertex="1">
          <mxGeometry x="230" y="420" width="130" height="80" as="geometry"/>
        </mxCell>
        <mxCell id="dIiYX6rC-DH4-wpnL1Wr-100" value="Login" style="ellipse;whiteSpace=wrap;html=1;fontSize=14;" parent="MGRXwD8dUgbWrKYlEfeG-1" vertex="1">
          <mxGeometry x="450" y="-40" width="120" height="80" as="geometry"/>
        </mxCell>
        <mxCell id="dIiYX6rC-DH4-wpnL1Wr-101" value="Register" style="ellipse;whiteSpace=wrap;html=1;fontSize=14;" parent="MGRXwD8dUgbWrKYlEfeG-1" vertex="1">
          <mxGeometry x="420" y="97.5" width="120" height="80" as="geometry"/>
        </mxCell>
        <mxCell id="dIiYX6rC-DH4-wpnL1Wr-102" value="Cast Vote" style="ellipse;whiteSpace=wrap;html=1;fontSize=14;" parent="MGRXwD8dUgbWrKYlEfeG-1" vertex="1">
          <mxGeometry x="420" y="210" width="120" height="80" as="geometry"/>
        </mxCell>
        <mxCell id="dIiYX6rC-DH4-wpnL1Wr-103" value="see result" style="ellipse;whiteSpace=wrap;html=1;fontSize=14;" parent="MGRXwD8dUgbWrKYlEfeG-1" vertex="1">
          <mxGeometry x="430" y="430" width="120" height="80" as="geometry"/>
        </mxCell>
        <mxCell id="dIiYX6rC-DH4-wpnL1Wr-104" value="&lt;font style=&quot;font-size: 18px&quot;&gt;&lt;b&gt;Admin&lt;/b&gt;&lt;/font&gt;" style="text;html=1;resizable=0;points=[];autosize=1;align=left;verticalAlign=top;spacingTop=-4;fontSize=14;" parent="MGRXwD8dUgbWrKYlEfeG-1" vertex="1">
          <mxGeometry y="280" width="70" height="20" as="geometry"/>
        </mxCell>
        <mxCell id="dIiYX6rC-DH4-wpnL1Wr-105" value="&lt;b style=&quot;font-size: 16px;&quot;&gt;&lt;font style=&quot;font-size: 16px;&quot;&gt;User&lt;/font&gt;&lt;/b&gt;" style="text;html=1;resizable=0;points=[];autosize=1;align=left;verticalAlign=top;spacingTop=-4;fontSize=16;" parent="MGRXwD8dUgbWrKYlEfeG-1" vertex="1">
          <mxGeometry x="746.5" y="270" width="60" height="20" as="geometry"/>
        </mxCell>
        <mxCell id="dIiYX6rC-DH4-wpnL1Wr-106" value="" style="endArrow=none;html=1;fontSize=16;exitX=1;exitY=0.3333333333333333;exitDx=0;exitDy=0;exitPerimeter=0;entryX=0;entryY=0.5;entryDx=0;entryDy=0;" parent="MGRXwD8dUgbWrKYlEfeG-1" source="dIiYX6rC-DH4-wpnL1Wr-93" target="dIiYX6rC-DH4-wpnL1Wr-95" edge="1">
          <mxGeometry width="50" height="50" relative="1" as="geometry">
            <mxPoint x="70" y="150" as="sourcePoint"/>
            <mxPoint x="120" y="100" as="targetPoint"/>
          </mxGeometry>
        </mxCell>
        <mxCell id="dIiYX6rC-DH4-wpnL1Wr-108" value="" style="endArrow=none;html=1;fontSize=16;exitX=1;exitY=0.3333333333333333;exitDx=0;exitDy=0;exitPerimeter=0;entryX=0;entryY=0.5;entryDx=0;entryDy=0;" parent="MGRXwD8dUgbWrKYlEfeG-1" source="dIiYX6rC-DH4-wpnL1Wr-93" target="dIiYX6rC-DH4-wpnL1Wr-97" edge="1">
          <mxGeometry width="50" height="50" relative="1" as="geometry">
            <mxPoint x="60" y="220" as="sourcePoint"/>
            <mxPoint x="269.9999999999957" y="160" as="targetPoint"/>
          </mxGeometry>
        </mxCell>
        <mxCell id="dIiYX6rC-DH4-wpnL1Wr-110" value="" style="endArrow=none;html=1;fontSize=16;exitX=1;exitY=1;exitDx=0;exitDy=0;exitPerimeter=0;entryX=0;entryY=0.5;entryDx=0;entryDy=0;" parent="MGRXwD8dUgbWrKYlEfeG-1" source="dIiYX6rC-DH4-wpnL1Wr-93" target="dIiYX6rC-DH4-wpnL1Wr-99" edge="1">
          <mxGeometry width="50" height="50" relative="1" as="geometry">
            <mxPoint x="80" y="240" as="sourcePoint"/>
            <mxPoint x="255.00000000000432" y="350" as="targetPoint"/>
          </mxGeometry>
        </mxCell>
        <mxCell id="dIiYX6rC-DH4-wpnL1Wr-111" value="" style="endArrow=none;html=1;fontSize=16;entryX=0;entryY=0.3333333333333333;entryDx=0;entryDy=0;entryPerimeter=0;exitX=1;exitY=0.5;exitDx=0;exitDy=0;" parent="MGRXwD8dUgbWrKYlEfeG-1" source="dIiYX6rC-DH4-wpnL1Wr-100" target="dIiYX6rC-DH4-wpnL1Wr-94" edge="1">
          <mxGeometry width="50" height="50" relative="1" as="geometry">
            <mxPoint x="560" y="210" as="sourcePoint"/>
            <mxPoint x="610" y="160" as="targetPoint"/>
          </mxGeometry>
        </mxCell>
        <mxCell id="dIiYX6rC-DH4-wpnL1Wr-112" value="" style="endArrow=none;html=1;fontSize=16;entryX=0;entryY=0.3333333333333333;entryDx=0;entryDy=0;entryPerimeter=0;exitX=1;exitY=0.5;exitDx=0;exitDy=0;" parent="MGRXwD8dUgbWrKYlEfeG-1" source="dIiYX6rC-DH4-wpnL1Wr-101" edge="1">
          <mxGeometry width="50" height="50" relative="1" as="geometry">
            <mxPoint x="570.0000000000002" y="110" as="sourcePoint"/>
            <mxPoint x="760" y="210" as="targetPoint"/>
          </mxGeometry>
        </mxCell>
        <mxCell id="dIiYX6rC-DH4-wpnL1Wr-113" value="" style="endArrow=none;html=1;fontSize=16;entryX=0;entryY=0.3333333333333333;entryDx=0;entryDy=0;entryPerimeter=0;exitX=1;exitY=0.5;exitDx=0;exitDy=0;" parent="MGRXwD8dUgbWrKYlEfeG-1" source="dIiYX6rC-DH4-wpnL1Wr-102" edge="1">
          <mxGeometry width="50" height="50" relative="1" as="geometry">
            <mxPoint x="570.0000000000002" y="210" as="sourcePoint"/>
            <mxPoint x="770" y="220" as="targetPoint"/>
          </mxGeometry>
        </mxCell>
        <mxCell id="dIiYX6rC-DH4-wpnL1Wr-114" value="" style="endArrow=none;html=1;fontSize=16;entryX=0;entryY=1;entryDx=0;entryDy=0;entryPerimeter=0;exitX=1;exitY=0.5;exitDx=0;exitDy=0;" parent="MGRXwD8dUgbWrKYlEfeG-1" source="dIiYX6rC-DH4-wpnL1Wr-103" target="dIiYX6rC-DH4-wpnL1Wr-94" edge="1">
          <mxGeometry width="50" height="50" relative="1" as="geometry">
            <mxPoint x="570.0000000000002" y="300" as="sourcePoint"/>
            <mxPoint x="780" y="230" as="targetPoint"/>
          </mxGeometry>
        </mxCell>
        <mxCell id="dIiYX6rC-DH4-wpnL1Wr-115" value="" style="endArrow=none;html=1;fontSize=16;exitX=1;exitY=0.3333333333333333;exitDx=0;exitDy=0;exitPerimeter=0;entryX=0;entryY=0.5;entryDx=0;entryDy=0;" parent="MGRXwD8dUgbWrKYlEfeG-1" source="dIiYX6rC-DH4-wpnL1Wr-93" target="dIiYX6rC-DH4-wpnL1Wr-100" edge="1">
          <mxGeometry width="50" height="50" relative="1" as="geometry">
            <mxPoint x="60" y="220" as="sourcePoint"/>
            <mxPoint x="250" y="70" as="targetPoint"/>
          </mxGeometry>
        </mxCell>
        <mxCell id="p4oKsnKEnJ_fwCQ6MbzO-0" value="" style="endArrow=none;html=1;fontSize=16;entryX=0.009;entryY=0.632;entryDx=0;entryDy=0;entryPerimeter=0;" edge="1" parent="MGRXwD8dUgbWrKYlEfeG-1" target="dIiYX6rC-DH4-wpnL1Wr-103">
          <mxGeometry width="50" height="50" relative="1" as="geometry">
            <mxPoint x="60" y="236.97674418604652" as="sourcePoint"/>
            <mxPoint x="260" y="330" as="targetPoint"/>
          </mxGeometry>
        </mxCell>
        <mxCell id="p4oKsnKEnJ_fwCQ6MbzO-1" value="&lt;font style=&quot;font-size: 14px&quot;&gt;make transaction&lt;/font&gt;" style="ellipse;whiteSpace=wrap;html=1;" vertex="1" parent="MGRXwD8dUgbWrKYlEfeG-1">
          <mxGeometry x="342.5" y="315" width="120" height="80" as="geometry"/>
        </mxCell>
        <mxCell id="p4oKsnKEnJ_fwCQ6MbzO-2" value="&amp;lt;&amp;lt;include&amp;gt;&amp;gt;" style="edgeStyle=none;html=1;endArrow=open;verticalAlign=bottom;dashed=1;labelBackgroundColor=none;entryX=0.5;entryY=0;entryDx=0;entryDy=0;exitX=0;exitY=0.5;exitDx=0;exitDy=0;" edge="1" parent="MGRXwD8dUgbWrKYlEfeG-1" source="dIiYX6rC-DH4-wpnL1Wr-102" target="p4oKsnKEnJ_fwCQ6MbzO-1">
          <mxGeometry width="160" relative="1" as="geometry">
            <mxPoint x="420" y="320" as="sourcePoint"/>
            <mxPoint x="580" y="320" as="targetPoint"/>
          </mxGeometry>
        </mxCell>
        <mxCell id="p4oKsnKEnJ_fwCQ6MbzO-4" value="&amp;lt;&amp;lt;extend&amp;gt;&amp;gt;" style="edgeStyle=none;html=1;startArrow=open;endArrow=none;startSize=12;verticalAlign=bottom;dashed=1;labelBackgroundColor=none;entryX=0.5;entryY=0;entryDx=0;entryDy=0;" edge="1" parent="MGRXwD8dUgbWrKYlEfeG-1" source="dIiYX6rC-DH4-wpnL1Wr-100" target="dIiYX6rC-DH4-wpnL1Wr-101">
          <mxGeometry width="160" relative="1" as="geometry">
            <mxPoint x="410" y="50" as="sourcePoint"/>
            <mxPoint x="570" y="50" as="targetPoint"/>
          </mxGeometry>
        </mxCell>
      </root>
    </mxGraphModel>
  </diagram>
</mxfile>
